PathFileType	4	(X/Y/Z)	./resultDataOpenSim/trcMotMarkerGrf/sub09/qtm-01-04.trc
DataRate	CameraRate	NumFrames	NumMarkers	Units	OrigDataRate	OrigDataStartFrame	OrigNumFrames
250.000000	250.000000	14	24	m	250.000000	1	468
Frame#	Time	L.Toe.Tip			R.Toe.Tip			L.Ankle.Lat			R.Ankle.Lat			L.Ankle.Med			R.Ankle.Med			L.Heel			R.Heel			L.Knee.Lat			R.Knee.Lat			L.Knee.Med			R.Knee.Med			L.Thigh.Upper			R.Thigh.Upper			L.ASIS			R.ASIS			V.Sacral			L.Acromium			R.Acromium			C7			L.Elbow			R.Elbow			L.Wrist.Lat			R.Wrist.Lat
		X1	Y1	Z1	X2	Y2	Z2	X3	Y3	Z3	X4	Y4	Z4	X5	Y5	Z5	X6	Y6	Z6	X7	Y7	Z7	X8	Y8	Z8	X9	Y9	Z9	X10	Y10	Z10	X11	Y11	Z11	X12	Y12	Z12	X13	Y13	Z13	X14	Y14	Z14	X15	Y15	Z15	X16	Y16	Z16	X17	Y17	Z17	X18	Y18	Z18	X19	Y19	Z19	X20	Y20	Z20	X21	Y21	Z21	X22	Y22	Z22	X23	Y23	Z23	X24	Y24	Z24

1	0	-1.5685796	0.036534753	-0.020424381	-0.98981855	0.094402988	0.12164397	-1.7138725	0.083139751	-0.051661459	-1.1392614	0.073827038	0.14352257	-1.6942688	0.096818747	0.045365332	-1.1282614	0.11358212	0.053420865	NaN	NaN	NaN	-1.1888809	0.034199407	0.085514031	-1.5612389	0.47208935	-0.11183766	-1.1947079	0.53027136	0.18582304	-1.5616676	0.4730049	0.014856378	-1.1884838	0.51243921	0.061043007	-1.4421116	0.87646449	-0.15397118	-1.4093891	0.87249461	0.21671814	-1.3350175	0.94671956	-0.10053668	-1.3282745	0.95212075	0.14001219	-1.4929068	1.0168914	0.030103074	-1.2833043	1.399566	-0.12919557	-1.3261551	1.4082871	0.1968172	-1.3648229	1.4602039	0.030285086	-1.4199479	1.0530737	-0.21384542	NaN	NaN	NaN	-1.197577	0.89602818	-0.18423683	-1.3885825	0.842166	0.30760834
2	0.004	-1.5685428	0.036477355	-0.020492422	-0.97054275	0.098126762	0.12320602	-1.7135852	0.083913892	-0.051652342	-1.1200028	0.073680622	0.14461637	-1.6929372	0.097897847	0.04498361	-1.1094468	0.11377404	0.054631259	NaN	NaN	NaN	-1.1683746	0.03287672	0.086618775	-1.5589016	0.4720641	-0.11205914	-1.1891295	0.52825453	0.186198	-1.5594868	0.47295192	0.014923673	-1.1813197	0.51068288	0.061314679	-1.4363484	0.87529028	-0.153529	-1.4026556	0.87068699	0.21710307	-1.3287385	0.94517257	-0.10040757	-1.3213562	0.9504015	0.14028165	-1.4864458	1.0151781	0.030597491	-1.2772439	1.3981392	-0.12876282	-1.3204414	1.4066639	0.19728432	-1.358884	1.4587652	0.030898666	-1.4131693	1.0503462	-0.21498658	NaN	NaN	NaN	-1.1890437	0.89581444	-0.18325079	-1.3825727	0.84042894	0.30824358
3	0.008	-1.5684954	0.036421013	-0.020568992	-0.95150904	0.10196494	0.12482584	-1.71327	0.084760076	-0.051659925	-1.1009195	0.073726871	0.14575766	-1.6916301	0.098945498	0.044565721	-1.0909405	0.11406558	0.055833042	NaN	NaN	NaN	-1.1480882	0.03173735	0.087772287	-1.5564526	0.47202747	-0.1122378	-1.1833627	0.5262969	0.18652632	-1.5569755	0.47290087	0.014968217	-1.1742243	0.5088853	0.061548319	-1.4305468	0.87413262	-0.15308039	-1.3959889	0.86886066	0.21748936	-1.3224891	0.94363661	-0.10026157	-1.3144989	0.9486815	0.14051913	-1.4800325	1.0134055	0.030981296	-1.2711563	1.3967157	-0.1282966	-1.3146383	1.4050395	0.19776444	-1.3529568	1.4573092	0.031335599	-1.4061263	1.0478764	-0.21565454	NaN	NaN	NaN	-1.1805505	0.89556473	-0.18226508	-1.3765351	0.83867774	0.30889238
4	0.012	-1.5684367	0.036373403	-0.020652933	-0.93296301	0.10597574	0.12649271	-1.7129269	0.085684846	-0.05168992	-1.0821279	0.074062691	0.1469686	-1.69034	0.099969242	0.04409561	-1.0728869	0.11453285	0.057025457	NaN	NaN	NaN	-1.1281469	0.030881396	0.08901446	-1.5538036	0.47196247	-0.11236582	-1.177393	0.52440877	0.18679524	-1.5539903	0.47283775	0.014973936	-1.1672155	0.50702424	0.061729618	-1.4247243	0.87298739	-0.152622	-1.389358	0.86700779	0.21788345	-1.3162763	0.94210941	-0.10010149	-1.3077033	0.94695422	0.14072024	-1.4736566	1.0115554	0.031229119	-1.2650168	1.3953006	-0.12779281	-1.3087108	1.4034107	0.19826243	-1.3469814	1.455829	0.031712536	-1.3987697	1.0456733	-0.2158317	NaN	NaN	NaN	-1.1720971	0.89526762	-0.18127571	-1.3704444	0.8369088	0.30956011
5	0.016	-1.5683689	0.036339275	-0.020737283	-0.91510419	0.11015406	0.12812929	-1.7125701	0.08665157	-0.051742819	-1.0637321	0.074686087	0.14823713	-1.6890728	0.1010009	0.04358815	-1.0553298	0.11521349	0.058204573	NaN	NaN	NaN	-1.1086289	0.030321316	0.090376439	-1.5508567	0.47186382	-0.11245334	-1.1713675	0.52251521	0.18705652	-1.5505819	0.47274066	0.014947067	-1.1602993	0.50510363	0.061872747	-1.4189129	0.87184692	-0.15215462	-1.3826957	0.86513292	0.2182869	-1.3100979	0.94059025	-0.099942774	-1.3009178	0.945226	0.14089828	-1.4672705	1.0096701	0.031433467	-1.2588272	1.3938961	-0.12726707	-1.3026934	1.4017799	0.19877432	-1.3408498	1.4543452	0.032388154	-1.391225	1.0436514	-0.21570215	NaN	NaN	NaN	-1.1636794	0.8949342	-0.18028132	-1.3642997	0.83513011	0.31024492
6	0.02	-1.5682912	0.036315692	-0.020817273	-0.8979706	0.11444626	0.12967532	-1.7122047	0.087644538	-0.051817952	-1.0458191	0.075548958	0.14951574	-1.687871	0.10205319	0.043077842	-1.038278	0.11610212	0.059353236	NaN	NaN	NaN	-1.0895638	0.030014147	0.091900753	-1.5473815	0.47176203	-0.11249259	-1.1654051	0.52052917	0.18738888	-1.5469097	0.47259572	0.01491932	-1.1534947	0.50313874	0.062006625	-1.4131007	0.87070932	-0.15168007	-1.3759566	0.86324837	0.21869491	-1.3039284	0.93908794	-0.099795175	-1.2940695	0.94351503	0.14106584	-1.4608167	1.0078168	0.031729059	-1.2526081	1.3924986	-0.12673151	-1.2966347	1.4001568	0.19930089	-1.3344652	1.4528893	0.033681797	-1.3836441	1.0417366	-0.21537804	NaN	NaN	NaN	-1.1553073	0.89457282	-0.17928973	-1.3581239	0.83334967	0.31094171
7	0.024	-1.5682038	0.036298714	-0.020892175	-0.88147588	0.11875636	0.13112904	-1.7118183	0.088676305	-0.051914103	-1.0284499	0.076603614	0.15073616	-1.6867649	0.10310887	0.042600305	-1.0217603	0.11715981	0.060444607	NaN	NaN	NaN	-1.0709733	0.029903401	0.093601504	-1.5432027	0.47169442	-0.1124667	-1.1593504	0.51849586	0.18783564	-1.54312	0.47239982	0.014926399	-1.1468263	0.50114323	0.062157362	-1.4072579	0.86957429	-0.15120138	-1.3691205	0.86136791	0.21910063	-1.2977369	0.93761952	-0.099658032	-1.2871337	0.94183647	0.14122728	-1.4542769	1.0060249	0.03217492	-1.2463875	1.3911095	-0.12619143	-1.2905568	1.3985541	0.19984977	-1.3278735	1.4514677	0.035471314	-1.3761178	1.0398391	-0.2149257	NaN	NaN	NaN	-1.1470022	0.89417422	-0.17831369	-1.3519479	0.83157335	0.31164513
8	0.028	-1.5681081	0.036286455	-0.020963191	-0.86553545	0.12299349	0.13249003	-1.7113817	0.089762877	-0.052037668	-1.0116022	0.077846206	0.15186239	-1.6857456	0.1041558	0.042183501	-1.0058307	0.11833794	0.061456076	NaN	NaN	NaN	-1.0529335	0.029967955	0.095370383	-1.5385346	0.4716476	-0.11238832	-1.1527366	0.51659099	0.18840787	-1.5392423	0.47215202	0.014986349	-1.1402817	0.4991236	0.062337787	-1.4013636	0.86844154	-0.15071755	-1.3621715	0.85949704	0.21949911	-1.2915145	0.93620042	-0.099529676	-1.280153	0.94019237	0.14138038	-1.4476776	1.0042683	0.032747913	-1.2401741	1.3897382	-0.12564723	-1.2844549	1.3969758	0.20042264	-1.3212755	1.4500536	0.037176615	-1.3686531	1.0379026	-0.21439562	NaN	NaN	NaN	-1.1387769	0.8937228	-0.17735918	-1.3457805	0.82980553	0.31235718
9	0.032	-1.5680017	0.036277144	-0.021031183	-0.85014463	0.12711445	0.13369256	-1.710881	0.090916065	-0.052200503	-0.99511891	0.079339375	0.15292999	-1.6847996	0.10520379	0.041840047	-0.99052576	0.11959534	0.062376782	NaN	NaN	NaN	-1.0355781	0.030214584	0.096995198	-1.5338195	0.47156372	-0.11229745	-1.1451586	0.51496552	0.18911246	-1.5352228	0.47185088	0.015092284	-1.1337747	0.4970876	0.062550306	-1.3954068	0.86731112	-0.15021633	-1.3550999	0.85763684	0.21988867	-1.2852639	0.93483055	-0.099414601	-1.2731805	0.93857468	0.1415229	-1.4410445	1.0025098	0.033404796	-1.2339446	1.3883914	-0.12509609	-1.2783224	1.395413	0.2010124	-1.3148234	1.4486188	0.03835139	-1.3612272	1.0359499	-0.21383018	NaN	NaN	NaN	-1.130628	0.89321689	-0.17642291	-1.3396057	0.82804965	0.31308611
10	0.036	-1.5678796	0.036268678	-0.021096413	-0.83535186	0.1310977	0.13462449	-1.7103523	0.092138877	-0.052404059	-0.97882356	0.08113906	0.15400258	-1.6839221	0.10626261	0.041558022	-0.97584456	0.12090035	0.063201788	NaN	NaN	NaN	-1.0190186	0.030617741	0.09832799	-1.5292758	0.47140095	-0.11221458	-1.1367586	0.5136129	0.18992082	-1.5309906	0.47150535	0.015213887	-1.1271841	0.49505959	0.06280018	-1.389382	0.86618157	-0.14967926	-1.3479085	0.85578769	0.22026937	-1.2789721	0.93349959	-0.099317716	-1.2662239	0.93697981	0.14165453	-1.4343837	1.0007409	0.034101367	-1.2276682	1.3870666	-0.12453471	-1.272154	1.3938562	0.20161205	-1.3084955	1.4471615	0.039042154	-1.3538292	1.034043	-0.21326842	NaN	NaN	NaN	-1.1225438	0.89267138	-0.17549971	-1.3334012	0.82630738	0.31383311
11	0.04	-1.567739	0.03626044	-0.021159427	-0.82120273	0.13488786	0.13521397	-1.7098491	0.09342603	-0.052637489	-0.9628077	0.083133462	0.15506514	-1.6830839	0.10733728	0.041308439	-0.9618007	0.12221886	0.063920599	NaN	NaN	NaN	-1.0032855	0.031112731	0.099362933	-1.5248377	0.47115255	-0.11213004	-1.128177	0.51239146	0.19074272	-1.5264604	0.47113556	0.0153148	-1.1204463	0.49308588	0.063096679	-1.383285	0.8650499	-0.14909652	-1.3406031	0.85394648	0.22064424	-1.2726146	0.93220553	-0.09923569	-1.259244	0.93541428	0.14177782	-1.4276932	0.99897906	0.034807729	-1.2213389	1.385758	-0.12395692	-1.2659371	1.3923075	0.20221773	-1.3021898	1.4456948	0.039525254	-1.3464552	1.0322168	-0.21272038	NaN	NaN	NaN	-1.1145154	0.89210172	-0.17459047	-1.3271568	0.82457798	0.31458804
12	0.044	-1.5675819	0.036254317	-0.021221292	-0.80772114	0.13839118	0.13547928	-1.7093862	0.094776842	-0.052888672	-0.94748583	0.085021892	0.15598746	-1.6822272	0.10844643	0.041062784	-0.94845132	0.12349951	0.064514727	NaN	NaN	NaN	-0.98833727	0.03165222	0.10013206	-1.5203647	0.47081841	-0.11203231	-1.1199033	0.51118472	0.19150612	-1.5215613	0.47074777	0.015380669	-1.1135858	0.49122391	0.063438074	-1.3771073	0.86391236	-0.14847685	-1.3331795	0.85211396	0.22102318	-1.2661766	0.93095093	-0.099159827	-1.2522037	0.93388586	0.1419005	-1.4209627	0.99724897	0.035532456	-1.2149692	1.3844673	-0.1233561	-1.2596622	1.3907751	0.20282788	-1.2958392	1.4442263	0.039995032	-1.3390991	1.030463	-0.21215834	NaN	NaN	NaN	-1.1065425	0.89151308	-0.17370196	-1.3208707	0.82286112	0.31534181
13	0.048	-1.5674126	0.036253645	-0.021283575	-0.79491769	0.14151617	0.13549731	-1.7089317	0.096198848	-0.053150802	-0.93322592	0.08652988	0.15663513	-1.6813053	0.10961218	0.040800808	-0.93580835	0.12468558	0.064976621	NaN	NaN	NaN	-0.97407938	0.032242301	0.10059642	-1.5157355	0.47040001	-0.11191763	-1.111901	0.50999848	0.19223432	-1.5163193	0.4703171	0.015429037	-1.1066484	0.48952579	0.063811305	-1.3708361	0.86276617	-0.14784197	-1.3256265	0.85030289	0.22141966	-1.2596569	0.92972678	-0.099086301	-1.2451075	0.93239674	0.14202959	-1.4141798	0.99556484	0.03630148	-1.2085536	1.3832037	-0.12273379	-1.2533254	1.3892609	0.20344237	-1.2894322	1.4427613	0.040513728	-1.3317607	1.0287647	-0.21155484	-1.4215266	1.066032	0.28183572	-1.098629	0.89090452	-0.17283954	-1.314537	0.82115874	0.31608966
14	0.052	-1.5672326	0.036261266	-0.021347989	-0.78280008	0.1441955	0.13534825	-1.7084154	0.097701917	-0.053433435	-0.92008505	0.087568957	0.15698653	-1.680307	0.1108391	0.040507657	-0.92375117	0.12574829	0.065332327	NaN	NaN	NaN	-0.9604255	0.032895419	0.10067891	-1.5108609	0.46991892	-0.11178559	-1.1039289	0.50888478	0.19299337	-1.5108674	0.46981112	0.015489815	-1.0996208	0.48802855	0.064211747	-1.3644596	0.86161247	-0.14720847	-1.3179319	0.84853028	0.221841	-1.2530543	0.92851854	-0.099015736	-1.2379785	0.93094552	0.1421673	-1.4073426	0.99392251	0.037118658	-1.20206	1.3819754	-0.12209962	-1.2469137	1.3877611	0.20406196	-1.2829847	1.4413131	0.041080105	-1.3244471	1.0271221	-0.21090673	-1.4148934	1.0643989	0.28221955	-1.090776	0.89027596	-0.1720041	-1.308147	0.81947605	0.31682512
